<svg xmlns="http://www.w3.org/2000/svg" viewBox="0 0 465.7 183.7"><defs><style>.cls-1,.cls-13,.cls-14,.cls-16,.cls-2,.cls-6,.cls-8{fill:none;}.cls-1,.cls-13,.cls-6{stroke:#f20303;}.cls-1,.cls-11,.cls-13,.cls-14,.cls-16,.cls-2,.cls-3,.cls-6,.cls-8{stroke-miterlimit:10;}.cls-2,.cls-3{stroke:#757575;}.cls-3,.cls-4{fill:#999795;}.cls-5{font-size:15.13px;}.cls-5,.cls-9{font-family:MyriadPro-Regular, Myriad Pro;}.cls-6{stroke-dasharray:5.11 5.11;}.cls-7{letter-spacing:0.02em;}.cls-8{stroke:#f33;stroke-dasharray:5 5 1;}.cls-9{font-size:17.11px;fill:#231f20;letter-spacing:0em;}.cls-10{letter-spacing:0em;}.cls-11{fill:#fcd868;stroke:#002a05;}.cls-12{fill:#f20303;}.cls-13,.cls-14{stroke-width:0.75px;}.cls-14{stroke:#060;}.cls-15{fill:#060;}.cls-16{stroke:#444;stroke-width:6px;}.cls-17{fill:#444;}</style></defs><g id="Layer_2" data-name="Layer 2"><g id="Layer_2-2" data-name="Layer 2"><path class="cls-1" d="M93.9,35.1c35.6,7.3,73.4,17.6,81.3,40.9,4,11.8-2.1,26.5-2.8,28.1-11.6,23.7-27.3,29.1-79.2,34.7"/><line class="cls-2" x1="93.4" y1="138.2" x2="129" y2="134.4"/><line class="cls-2" x1="176.4" y1="83.5" x2="168.3" y2="111.1"/><line class="cls-2" x1="129.8" y1="133.8" x2="168.5" y2="110.7"/><line class="cls-2" x1="176.4" y1="83.5" x2="93.4" y2="35"/><circle class="cls-3" cx="129.5" cy="134.4" r="1.2"/><circle class="cls-3" cx="168.4" cy="110.8" r="1.2"/><circle class="cls-3" cx="176.4" cy="83.5" r="1.2"/><path class="cls-4" d="M94.1,34.1a1.2,1.2,0,0,1,.3,1.7,1.2,1.2,0,0,1-1.7.3,1.2,1.2,0,0,1-.3-1.7A1.3,1.3,0,0,1,94.1,34.1Z"/><circle class="cls-3" cx="93.4" cy="35.1" r="1.2"/><circle class="cls-3" cx="93.4" cy="138.1" r="1.2"/><text class="cls-5" transform="translate(92.8 30.8)">P</text><text class="cls-5" transform="translate(100.8 35.9) scale(0.58)">4</text><text class="cls-5" transform="translate(180 85.7)">P</text><text class="cls-5" transform="translate(188.1 90.7) scale(0.58)">3</text><text class="cls-5" transform="translate(172.4 121)">P</text><text class="cls-5" transform="translate(180.4 126) scale(0.58)">2</text><text class="cls-5" transform="translate(129.5 148)">P</text><text class="cls-5" transform="translate(137.6 153.1) scale(0.58)">1</text><text class="cls-5" transform="translate(92.8 151.6)">P</text><text class="cls-5" transform="translate(100.8 156.6) scale(0.58)">(0,0)</text><path class="cls-1" d="M93,34.7l-2.5.5"/><path class="cls-6" d="M85.5,36.3C52.2,43.5,19,53.9,11.7,75.5c-4,11.8,2,26.6,2.8,28.2,11.2,22.9,26.2,28.7,74.2,34.1"/><path class="cls-1" d="M91.2,138.1l2.5.3"/><line class="cls-2" x1="93.4" y1="137.8" x2="57.8" y2="134"/><line class="cls-2" x1="10.5" y1="83.1" x2="18.5" y2="110.7"/><line class="cls-2" x1="57" y1="133.4" x2="18.4" y2="110.3"/><line class="cls-2" x1="10.5" y1="83.1" x2="93.5" y2="34.6"/><circle class="cls-3" cx="57.3" cy="134" r="1.2"/><circle class="cls-3" cx="18.4" cy="110.4" r="1.2"/><circle class="cls-3" cx="10.5" cy="83.1" r="1.2"/><path class="cls-4" d="M92.7,33.7a1.2,1.2,0,0,0,1.4,2,1.2,1.2,0,0,0,.3-1.7A1.2,1.2,0,0,0,92.7,33.7Z"/><circle class="cls-3" cx="93.4" cy="34.6" r="1.2"/><circle class="cls-3" cx="93.4" cy="137.7" r="1.2"/><text/><text class="cls-5" transform="translate(0 77.6)"><tspan class="cls-7">P</tspan><tspan x="8.4" y="0">’</tspan></text><text class="cls-5" transform="translate(11.5 82.7) scale(0.58)">3</text><text class="cls-5" transform="translate(3.4 117.6)"><tspan class="cls-7">P</tspan><tspan x="8.4" y="0">’</tspan></text><text class="cls-5" transform="translate(14.9 122.6) scale(0.58)">2</text><text class="cls-5" transform="translate(49.1 147.5)"><tspan class="cls-7">P</tspan><tspan x="8.4" y="0">’</tspan></text><text class="cls-5" transform="translate(60.6 152.6) scale(0.58)">1</text><line class="cls-8" x1="93.4" y1="25" x2="93.4" y2="161.4"/><g id="MTEXT"><text class="cls-9" transform="translate(73.8 14.3)">y-<tspan class="cls-10" x="13.2" y="0">Axis</tspan></text></g><path class="cls-11" d="M448.2,81.3c-.9-5.1-3.6-9.1-7-12.9-13.6-15.1-37.4-20.5-56.6-25.3-5.7-1.4-12.4-3.9-18.3-4.2-4.1-.2-7.8,1.8-11.7,2.6L342.9,44a209.1,209.1,0,0,0-24.6,7c-14.7,5.5-30,14.6-34.7,30.4a63.5,63.5,0,0,0-.1,15.7c2.2,4.9,3.1,10.3,6,14.9,13.6,21.6,40.4,26.3,64.1,28.3,2.8.2,5.6.4,8.4.4v42.5h7.7V140.6c3.7-.1,7.4-.4,11.1-.7s9-1.1,13.5-1.8c2.2-.4,7.5-.5,9.4-1.6,22.3-4.9,38.7-16.3,44.5-39.4A69.6,69.6,0,0,0,448.2,81.3Z"/><path class="cls-1" d="M366.9,38.6l2.5.5"/><path class="cls-6" d="M374.4,40.2c33.3,7.2,66.5,17.6,73.8,39.2,4,11.8-2,26.6-2.8,28.2-11.2,22.9-26.2,28.7-74.1,34.1"/><path class="cls-1" d="M368.7,142l-2.5.3"/><line class="cls-2" x1="366.5" y1="141.7" x2="402.1" y2="137.9"/><line class="cls-2" x1="449.4" y1="87" x2="441.4" y2="114.6"/><line class="cls-2" x1="402.9" y1="137.3" x2="441.5" y2="114.2"/><line class="cls-2" x1="449.4" y1="87" x2="366.5" y2="38.5"/><circle class="cls-3" cx="402.6" cy="137.9" r="1.2"/><circle class="cls-3" cx="441.5" cy="114.3" r="1.2"/><circle class="cls-3" cx="449.4" cy="87" r="1.2"/><path class="cls-4" d="M367.2,37.6a1.2,1.2,0,1,1-1.4,2,1.2,1.2,0,1,1,1.4-2Z"/><circle class="cls-3" cx="366.5" cy="38.5" r="1.2"/><circle class="cls-3" cx="366.5" cy="141.6" r="1.2"/><text class="cls-5" transform="translate(365.8 34.3)">P</text><text class="cls-5" transform="translate(373.9 39.4) scale(0.58)">4</text><text class="cls-5" transform="translate(453.1 89.1)">P</text><text class="cls-5" transform="translate(461.2 94.2) scale(0.58)">3</text><text class="cls-5" transform="translate(445.4 124.5)">P</text><text class="cls-5" transform="translate(453.5 129.5) scale(0.58)">2</text><text class="cls-5" transform="translate(402.6 151.5)">P</text><text class="cls-5" transform="translate(410.7 156.5) scale(0.58)">1</text><text class="cls-5" transform="translate(365.8 155.1)">P</text><text class="cls-5" transform="translate(373.9 160.1) scale(0.58)">0</text><path class="cls-1" d="M366,38.2l-2.4.5"/><path class="cls-6" d="M358.6,39.8C325.3,47,292.1,57.4,284.8,79c-4,11.8,2,26.6,2.8,28.2,11.2,22.8,26.2,28.7,74.1,34.1"/><path class="cls-1" d="M364.3,141.6l2.4.3"/><line class="cls-2" x1="366.5" y1="141.2" x2="330.9" y2="137.5"/><line class="cls-2" x1="283.6" y1="86.6" x2="291.6" y2="114.2"/><line class="cls-2" x1="330.1" y1="136.9" x2="291.4" y2="113.8"/><line class="cls-2" x1="283.6" y1="86.6" x2="366.5" y2="38.1"/><circle class="cls-3" cx="330.4" cy="137.5" r="1.2"/><circle class="cls-3" cx="291.5" cy="113.9" r="1.2"/><circle class="cls-3" cx="283.5" cy="86.6" r="1.2"/><path class="cls-4" d="M365.8,37.2a1.2,1.2,0,0,0,1.4,2,1.3,1.3,0,0,0,.3-1.7A1.2,1.2,0,0,0,365.8,37.2Z"/><circle class="cls-3" cx="366.5" cy="38.1" r="1.2"/><circle class="cls-3" cx="366.5" cy="141.2" r="1.2"/><text/><text class="cls-5" transform="translate(273.1 81.1)"><tspan class="cls-7">P</tspan><tspan x="8.4" y="0">’</tspan></text><text class="cls-5" transform="translate(284.6 86.2) scale(0.58)">3</text><text class="cls-5" transform="translate(276.5 121.1)"><tspan class="cls-7">P</tspan><tspan x="8.4" y="0">’</tspan></text><text class="cls-5" transform="translate(288 126.1) scale(0.58)">2</text><text class="cls-5" transform="translate(322.1 151)"><tspan class="cls-7">P</tspan><tspan x="8.4" y="0">’</tspan></text><text class="cls-5" transform="translate(333.6 156.1) scale(0.58)">1</text><line class="cls-8" x1="366.5" y1="28.5" x2="366.5" y2="164.8"/><circle class="cls-12" cx="93.7" cy="35.9" r="4"/><circle class="cls-12" cx="176.5" cy="83.6" r="4"/><circle class="cls-12" cx="168.3" cy="110.8" r="4"/><circle class="cls-12" cx="129.5" cy="133.6" r="4"/><circle class="cls-12" cx="93.7" cy="138.4" r="4"/><line class="cls-13" x1="93.9" y1="137.1" x2="121" y2="137.1"/><path class="cls-12" d="M125.5,137.1a21.2,21.2,0,0,0-6.4,3.6l1.3-3.6-1.3-3.6A21.2,21.2,0,0,0,125.5,137.1Z"/><line class="cls-14" x1="93.9" y1="137.8" x2="93.9" y2="115.7"/><path class="cls-15" d="M93.9,111.2a23.5,23.5,0,0,0,3.6,6.4l-3.6-1.3-3.5,1.3A23.3,23.3,0,0,0,93.9,111.2Z"/><line class="cls-16" x1="217.3" y1="94.3" x2="235.7" y2="94.3"/><polygon class="cls-17" points="223.8 104.5 233.9 94.3 223.8 84.1 232.4 84.1 242.6 94.3 232.4 104.5 223.8 104.5"/></g></g></svg>